<svg xmlns="http://www.w3.org/2000/svg" width="2250" height="2250" viewBox="0 0 2250 2250" version="1.1"><path d="M 1114.500 471.595 C 1081.649 472.827, 1042.493 477.514, 1010.850 484.003 C 980.236 490.282, 938.741 502.171, 912.803 512.095 C 908.236 513.842, 901.800 516.306, 898.500 517.570 C 889.930 520.853, 883.288 523.952, 884.767 523.978 C 885.464 523.990, 889.964 522.683, 894.767 521.074 C 940.850 505.634, 976.772 497.927, 1027.500 492.597 C 1098.435 485.144, 1182.290 491.209, 1249 508.617 C 1316.029 526.109, 1370.645 549.745, 1432 587.813 C 1450.368 599.210, 1492.507 630.319, 1500 638.013 C 1500.275 638.296, 1503.875 641.395, 1508 644.901 C 1518.593 653.905, 1543.058 677.849, 1552.514 688.469 C 1556.906 693.401, 1563.200 700.402, 1566.500 704.026 C 1571.783 709.827, 1588.214 730.514, 1598.464 744.271 C 1608.653 757.946, 1628.340 788.344, 1635.202 801 C 1637.737 805.675, 1641.031 811.750, 1642.522 814.500 C 1648.055 824.706, 1658.858 846.738, 1661.890 854 C 1666.478 864.987, 1666.508 865.009, 1668.519 858.866 C 1672.949 845.339, 1680.527 835.985, 1691.500 830.499 C 1696.754 827.873, 1698.759 827.458, 1707.631 827.162 C 1716.637 826.862, 1718.465 827.109, 1724.083 829.378 C 1727.559 830.782, 1730.586 831.747, 1730.810 831.524 C 1731.033 831.300, 1729.664 828.503, 1727.766 825.309 C 1725.869 822.114, 1723.298 817.475, 1722.054 815 C 1715.350 801.668, 1688.017 759.015, 1677.196 745 C 1674.861 741.975, 1671.948 738.167, 1670.725 736.537 C 1668.910 734.120, 1656.258 718.165, 1649.285 709.500 C 1636.068 693.077, 1601.435 657.275, 1584 642.012 C 1578.775 637.438, 1572.925 632.301, 1571 630.598 C 1569.075 628.894, 1565.925 626.294, 1564 624.820 C 1562.075 623.346, 1558.925 620.741, 1557 619.030 C 1550.275 613.055, 1520.985 591.379, 1509.500 583.878 C 1480.094 564.673, 1469.732 558.561, 1443.500 544.950 C 1406.877 525.948, 1371.880 511.701, 1333 499.966 C 1327.225 498.223, 1320.475 496.179, 1318 495.422 C 1312.629 493.781, 1280.356 485.845, 1277.500 485.463 C 1276.400 485.316, 1272.350 484.453, 1268.500 483.545 C 1258.018 481.073, 1224.460 476.047, 1208 474.484 C 1182.798 472.091, 1138.110 470.711, 1114.500 471.595 M 787.363 530.953 C 776.495 533.545, 720.447 571.885, 691.160 596.760 C 679.932 606.297, 654.225 629.515, 652.902 631.313 C 652.573 631.760, 646.473 638.060, 639.346 645.313 C 632.219 652.566, 623.038 662.325, 618.944 667 C 614.850 671.675, 611.243 675.725, 610.928 676 C 605.575 680.679, 567.982 730.291, 560.778 742.183 C 554.763 752.113, 551.557 762.602, 552.459 769.400 C 553.080 774.085, 555.649 780, 557.062 780 C 558.628 780, 565.429 787.735, 567.103 791.419 C 569.545 796.796, 569.523 805.563, 567.049 812.600 C 565.977 815.652, 562.360 822.953, 559.012 828.825 C 549.356 845.758, 535.824 873.117, 528.506 890.500 C 524.801 899.300, 521.187 907.850, 520.474 909.500 C 512.172 928.723, 498.822 970.498, 493.469 994 C 492.530 998.125, 490.876 1005.100, 489.795 1009.500 C 485.211 1028.148, 480.732 1054.832, 478.046 1079.500 C 477.447 1085, 476.772 1091.075, 476.546 1093 C 472.249 1129.629, 473.615 1196.417, 479.604 1242.500 C 483.693 1273.965, 494.703 1324.489, 499.596 1334.243 C 505.760 1346.529, 514.137 1354.182, 524.932 1357.387 C 531.674 1359.389, 535.242 1359.414, 541.672 1357.505 C 548.968 1355.338, 555.192 1349.414, 559.650 1340.394 C 563.153 1333.306, 563.349 1332.389, 563.422 1322.709 C 563.496 1313.007, 563.240 1311.705, 558.276 1296.500 C 546.089 1259.173, 535.747 1215.938, 532.444 1188.500 C 529.698 1165.699, 529.059 1159.463, 528.498 1150 C 528.188 1144.775, 527.689 1138.025, 527.390 1135 C 527.090 1131.975, 526.712 1119.600, 526.549 1107.500 C 525.880 1057.817, 532.395 1003.336, 545.084 952.500 C 550.970 928.919, 560.680 897.443, 566.523 883 C 573.862 864.860, 584.356 840.238, 586.874 835.249 C 594.868 819.413, 606.368 813.292, 619.465 817.901 C 622.746 819.055, 627.270 820, 629.519 820 C 636.176 820, 644.613 814.938, 651.231 806.973 C 652.792 805.094, 654.778 802.267, 663.505 789.500 C 670.265 779.612, 686.133 758.379, 689.671 754.489 C 690.677 753.384, 694.963 748.209, 699.195 742.989 C 706.877 733.515, 737.794 701.592, 752.018 688.447 C 770.847 671.046, 796.064 651.331, 820 635.295 C 839.403 622.297, 845.411 616.608, 841.978 614.486 C 840.520 613.585, 831.759 616.680, 825.078 620.456 C 813.143 627.202, 774.561 653.977, 767.389 660.491 C 766.778 661.046, 764.544 662.850, 762.424 664.500 C 752.425 672.283, 737.572 685.236, 728.500 694.085 C 723 699.449, 716.025 706.244, 713 709.185 C 702.158 719.724, 689.572 733.567, 677.338 748.408 C 653.762 777.007, 654.909 776.071, 648.345 772.069 C 644.934 769.989, 643.341 765.653, 644.567 761.788 C 645.631 758.435, 664.877 733.223, 676.846 719.500 C 716.117 674.478, 753.677 641.246, 803.002 607.882 C 817.655 597.971, 828 589.356, 828 587.065 C 828 585.611, 823.306 585.800, 818.707 587.441 C 813.730 589.216, 792.209 602.207, 779.800 610.926 C 776.335 613.361, 771.475 616.711, 769 618.372 C 766.525 620.033, 761.051 624.116, 756.835 627.446 C 752.619 630.776, 746.567 635.525, 743.387 638 C 711.559 662.770, 665.429 709.493, 640.301 742.410 C 630.094 755.782, 623.376 758.051, 619.301 749.504 C 617.832 746.425, 617.785 745.484, 618.936 742.299 C 619.665 740.285, 620.648 738.156, 621.121 737.568 C 621.593 736.981, 626.508 730.650, 632.043 723.500 C 655.883 692.700, 671.722 675.267, 701.090 647.500 C 724.686 625.190, 757.111 599.547, 785.500 580.743 C 801.972 569.832, 811 562.271, 811 559.386 C 811 555.044, 796.171 561.320, 776.387 574.034 C 769.363 578.547, 763.045 582.749, 762.347 583.370 C 761.648 583.992, 758.095 586.525, 754.452 589 C 745.205 595.280, 711.278 621.395, 709 623.985 C 708.725 624.297, 700.850 631.362, 691.500 639.684 C 676.254 653.254, 652.809 676.795, 643.878 687.500 C 642.043 689.700, 637.354 695.100, 633.459 699.500 C 629.563 703.900, 624.154 710.425, 621.438 714 C 618.722 717.575, 616.260 720.725, 615.967 721 C 615.674 721.275, 613.761 723.811, 611.716 726.636 C 607.279 732.764, 604.144 735, 599.990 735 C 593.307 735, 589.568 726.408, 593.848 720.885 C 594.864 719.573, 597.877 715.350, 600.542 711.500 C 603.208 707.650, 607.587 701.800, 610.274 698.500 C 612.961 695.200, 615.686 691.810, 616.329 690.966 C 618.345 688.324, 627.319 677.579, 628.947 675.859 C 629.801 674.956, 632.292 672.031, 634.482 669.359 C 649.245 651.346, 698.017 604.809, 717 590.622 C 720.025 588.361, 722.725 586.242, 723 585.912 C 724.344 584.302, 753.498 563.259, 769 552.712 C 795.889 534.416, 801.697 527.534, 787.363 530.953 M 1369.489 602.288 C 1368.933 602.955, 1365.935 606.875, 1362.828 611 C 1357.161 618.521, 1350.123 624.556, 1338 632.289 C 1334.425 634.569, 1328.463 639.391, 1324.750 643.005 C 1321.037 646.619, 1318.009 649.334, 1318.020 649.038 C 1318.065 647.858, 1328.950 633.703, 1333.542 628.853 C 1340.844 621.140, 1337.092 623.406, 1328.322 632.006 L 1320.678 639.500 1324.874 633.500 C 1327.182 630.200, 1331.978 624.350, 1335.532 620.500 C 1339.086 616.650, 1341.995 613.132, 1341.997 612.683 C 1342.002 611.428, 1333.222 618.754, 1326.250 625.822 C 1322.813 629.306, 1320 631.827, 1320 631.423 C 1320 630.372, 1324.695 624.313, 1329.970 618.556 C 1333.954 614.207, 1334.108 613.884, 1331.250 615.874 C 1329.440 617.134, 1328 617.626, 1328 616.984 C 1328 615.109, 1320.392 621.695, 1316.674 626.790 C 1313.859 630.645, 1303.408 651.837, 1298.135 664.379 C 1296.083 669.263, 1295.938 666.707, 1297.885 659.934 C 1300.481 650.899, 1305.005 641.332, 1310.716 632.802 C 1317.063 623.322, 1317.847 621.704, 1314.014 626 C 1304.767 636.362, 1293.894 656.515, 1291.421 667.875 C 1289.280 677.710, 1287.997 679.055, 1288.012 671.450 C 1288.037 659.048, 1293.511 646.533, 1305.926 630.500 C 1308.481 627.200, 1311.640 622.925, 1312.946 621 C 1315.219 617.647, 1315.118 617.690, 1310.540 622 C 1306.951 625.379, 1306.071 625.877, 1307.008 624 C 1307.695 622.625, 1308.935 620.600, 1309.763 619.500 C 1310.592 618.400, 1309.184 619.681, 1306.635 622.347 C 1302.011 627.182, 1301.076 627.594, 1303.035 623.934 C 1303.605 622.870, 1303.670 622, 1303.181 622 C 1299.962 622, 1290.418 635.707, 1284.730 648.500 C 1280.467 658.087, 1278.412 664.852, 1277.468 672.408 C 1277.082 675.498, 1276.415 678.244, 1275.985 678.509 C 1274.899 679.180, 1272.996 667.568, 1273.020 660.418 C 1273.030 657.163, 1273.690 650.900, 1274.485 646.500 C 1275.280 642.100, 1275.913 637.375, 1275.891 636 C 1275.857 633.865, 1275.596 634.080, 1274.099 637.471 C 1272.525 641.038, 1272.239 641.250, 1271.292 639.557 C 1270.393 637.951, 1270.070 638.446, 1269.118 642.885 C 1268.503 645.752, 1268 650.926, 1268 654.383 C 1268 657.839, 1267.686 660.981, 1267.302 661.365 C 1265.716 662.951, 1264.274 657.370, 1264.648 651.088 C 1264.948 646.034, 1264.804 645.039, 1264.027 646.817 C 1263.471 648.091, 1262.959 653.941, 1262.891 659.817 C 1262.767 670.399, 1263.728 678.005, 1266.627 689.387 C 1269.086 699.043, 1266.778 697.963, 1261.742 687.101 C 1257.014 676.902, 1254.045 667.943, 1251.991 657.671 C 1250.201 648.718, 1249.856 651.509, 1251.498 661.662 C 1253.352 673.123, 1257.386 685.440, 1263.996 699.817 C 1266.858 706.042, 1269.009 711.324, 1268.777 711.557 C 1266.511 713.822, 1250.531 685.822, 1246.019 671.683 C 1245.349 669.584, 1244.646 668.021, 1244.457 668.210 C 1243.816 668.850, 1246.057 677.462, 1248.645 684.307 C 1250.061 688.051, 1250.999 691.335, 1250.730 691.603 C 1249.722 692.611, 1239.759 676.211, 1235.175 666 C 1232.765 660.631, 1235.269 669.348, 1238.142 676.330 C 1241.075 683.459, 1245.003 690.368, 1253.304 702.999 C 1259.682 712.703, 1265.500 723.834, 1264.643 724.691 C 1263.668 725.666, 1257.738 719.703, 1250.432 710.402 C 1243.872 702.050, 1233.314 683.604, 1232.316 678.750 C 1231.706 675.785, 1229 674.911, 1229 677.679 C 1229 680.657, 1233.114 693.265, 1236.936 702 C 1238.982 706.675, 1244.108 715.755, 1248.328 722.178 C 1255.759 733.490, 1257.807 737.745, 1254.500 735 C 1253.298 734.002, 1252.675 734.025, 1251.363 735.114 C 1249.943 736.292, 1249.512 736.143, 1248.113 733.986 C 1246.331 731.239, 1231.255 711.088, 1229.794 709.500 C 1227.837 707.373, 1231.125 714.233, 1236.576 723.650 C 1251.566 749.546, 1266.520 780.873, 1270.604 794.936 C 1272.525 801.551, 1273.229 806.840, 1273.698 818.181 L 1274.305 832.861 1270.504 833.181 C 1266.289 833.535, 1265.847 834.093, 1263.533 842 C 1262.647 845.025, 1261.543 848.400, 1261.078 849.500 C 1260.614 850.600, 1258.992 854.650, 1257.475 858.500 C 1249.652 878.352, 1237.631 897.037, 1223.438 911.401 C 1217.236 917.678, 1218.021 917.616, 1207.798 912.648 C 1193.533 905.717, 1187.272 903, 1185.562 903 C 1184.703 903, 1184 902.601, 1184 902.113 C 1184 901.626, 1182.763 900.984, 1181.250 900.687 C 1179.737 900.390, 1174.225 898.940, 1169 897.464 C 1155.071 893.531, 1152.780 893.044, 1138.500 890.993 C 1115.873 887.741, 1070.632 888.772, 1055 892.895 C 1053.075 893.402, 1049.025 894.358, 1046 895.019 C 1038.658 896.622, 1028.085 899.765, 1022.500 902.004 C 1021.400 902.445, 1017.350 904.071, 1013.500 905.617 C 1007.432 908.054, 998.176 912.583, 991.500 916.384 C 975.739 925.356, 954.405 943.601, 942.993 957.867 C 941.072 960.270, 939.050 962.753, 938.500 963.386 C 930.807 972.237, 918.172 996.320, 913.518 1011 C 909.377 1024.061, 909.106 1025.096, 908.004 1032.024 C 903.937 1057.600, 905.200 1094.276, 910.828 1114 C 911.377 1115.925, 912.521 1120.033, 913.369 1123.130 C 915.416 1130.600, 920.989 1143.005, 927.461 1154.500 C 930.100 1159.188, 936.712 1168.889, 938.025 1170 C 938.350 1170.275, 939.286 1171.482, 940.105 1172.683 C 944.002 1178.395, 960.620 1194.770, 968.323 1200.487 C 969.795 1201.580, 971 1203.080, 971 1203.819 C 971 1205.135, 966.220 1211.516, 960.755 1217.496 C 959.245 1219.148, 958.007 1220.805, 958.005 1221.179 C 958.002 1221.552, 957.428 1222.452, 956.729 1223.179 C 956.031 1223.905, 953.683 1226.975, 951.512 1230 C 949.342 1233.025, 947.273 1235.725, 946.915 1236 C 943.487 1238.633, 920 1281.427, 920 1285.039 C 920 1285.583, 919.589 1286.809, 919.087 1287.764 C 917.536 1290.711, 913.870 1303.187, 912.700 1309.500 C 911.310 1316.992, 911.357 1348.614, 912.768 1356 C 918.640 1386.732, 934.115 1407.895, 960.534 1421.321 C 975.378 1428.865, 997.887 1434.346, 1018.396 1435.412 C 1024.389 1435.724, 1067.364 1436.029, 1113.896 1436.091 C 1204.767 1436.211, 1207.561 1436.352, 1218.033 1441.341 C 1223.216 1443.810, 1232 1450.863, 1232 1452.556 C 1232 1452.988, 1232.633 1454.053, 1233.407 1454.921 C 1236.008 1457.839, 1239 1469.088, 1238.992 1475.915 C 1238.985 1482.548, 1236.897 1491.111, 1233.487 1498.500 C 1231.148 1503.567, 1219.664 1521.204, 1217.575 1522.938 C 1214.250 1525.697, 1215.735 1528.537, 1224.976 1537.088 C 1235.019 1546.381, 1236.258 1547.257, 1238.164 1546.409 C 1239.897 1545.638, 1249.775 1533.943, 1257.883 1523.064 C 1284.806 1486.940, 1297.472 1454.381, 1298.546 1418.535 C 1299.082 1400.662, 1295.254 1381.696, 1288.762 1370.050 C 1285.022 1363.341, 1276.838 1353.040, 1272.672 1349.798 C 1270.377 1348.012, 1268.275 1346.262, 1268 1345.909 C 1267.327 1345.043, 1257.126 1338.737, 1254 1337.254 C 1246.663 1333.773, 1239.540 1331, 1237.935 1331 C 1236.935 1331, 1235.871 1330.600, 1235.568 1330.110 C 1235.266 1329.621, 1233.552 1328.983, 1231.759 1328.693 C 1229.967 1328.402, 1225.125 1327.429, 1221 1326.529 C 1204.955 1323.029, 1196.373 1322.710, 1100 1322.035 C 1041.092 1321.623, 1001.931 1320.968, 999.472 1320.355 C 988.316 1317.571, 977.700 1309.924, 974.462 1302.338 C 967.201 1285.329, 968.782 1272.176, 980.788 1249.706 C 985.663 1240.582, 997.339 1222.526, 999.048 1221.470 C 999.530 1221.172, 1002.145 1222.053, 1004.858 1223.428 C 1029.863 1236.099, 1071.209 1244.873, 1103.500 1244.361 C 1141.499 1243.759, 1166.127 1239.337, 1194.500 1228.023 C 1232.350 1212.930, 1270.002 1177.938, 1286.523 1142.500 C 1293.874 1126.734, 1299.279 1109.531, 1300.663 1097.500 C 1300.916 1095.300, 1301.507 1091.250, 1301.976 1088.500 C 1303.258 1080.980, 1302.401 1047.759, 1300.672 1037.964 C 1297.366 1019.232, 1292.159 1003.880, 1283.724 988 C 1279.238 979.555, 1268.860 963.329, 1267.095 962 C 1266.730 961.725, 1265.403 960.150, 1264.147 958.500 C 1262.891 956.850, 1258.519 952.049, 1254.432 947.830 C 1250.344 943.612, 1247 939.742, 1247 939.231 C 1247 938.720, 1250.495 934.747, 1254.766 930.401 C 1272.571 912.287, 1287.986 885.566, 1297.031 857.138 C 1299.308 849.982, 1301.015 843.316, 1300.824 842.325 C 1300.633 841.334, 1299.582 840.379, 1298.489 840.203 C 1294.333 839.534, 1293.863 839.125, 1294.937 837.118 C 1295.500 836.066, 1299.682 832.123, 1304.230 828.356 C 1308.779 824.589, 1313.358 820.731, 1314.407 819.783 C 1318.713 815.890, 1336.160 806.368, 1351.740 799.408 C 1369.723 791.373, 1375.034 788.336, 1385 780.385 C 1398.603 769.533, 1406.544 759.830, 1414.066 744.868 C 1418.193 736.661, 1418.232 735.494, 1414.259 739.226 C 1412.072 741.281, 1411.944 741.301, 1412.600 739.476 C 1412.991 738.389, 1413.621 737.050, 1414 736.500 C 1415.326 734.577, 1415.992 731.887, 1414.989 732.507 C 1414.445 732.843, 1414 733.576, 1414 734.135 C 1414 736.199, 1404.884 746.914, 1400.266 750.277 C 1394.075 754.786, 1384.056 760.389, 1383.384 759.718 C 1383.096 759.429, 1385.029 757.706, 1387.680 755.888 C 1393.621 751.815, 1401.783 744.284, 1403.229 741.542 C 1403.822 740.419, 1402.100 741.624, 1399.403 744.219 C 1396.706 746.815, 1392.925 750.113, 1391 751.548 C 1387.545 754.124, 1378.666 759, 1377.430 759 C 1377.080 759, 1381.732 754.163, 1387.767 748.250 C 1399.974 736.293, 1406.031 727.980, 1410.162 717.516 C 1413.103 710.065, 1413.627 707.494, 1412 708.500 C 1411.447 708.842, 1410.983 708.086, 1410.961 706.809 C 1410.928 704.894, 1410.664 705.097, 1409.411 708 C 1407.491 712.447, 1398.738 725.970, 1397.769 725.987 C 1397.367 725.994, 1398.604 723.150, 1400.519 719.667 C 1405.302 710.964, 1404.879 710.383, 1399.342 718.050 C 1392.449 727.595, 1385.009 735.981, 1380.600 739.175 C 1374.085 743.894, 1374.321 742.364, 1381.206 735.231 C 1387.324 728.895, 1392.800 721.233, 1399.551 709.565 C 1401.122 706.851, 1401.931 704.924, 1401.350 705.283 C 1400.770 705.642, 1401.279 702.913, 1402.483 699.218 C 1403.687 695.523, 1404.949 690.925, 1405.287 689 C 1405.845 685.823, 1405.689 685.961, 1403.595 690.500 L 1401.288 695.500 1401.394 689.586 C 1401.465 685.648, 1401.080 683.530, 1400.244 683.250 C 1399.553 683.019, 1399.285 682.348, 1399.648 681.761 C 1400.690 680.074, 1400.899 669.056, 1399.900 668.438 C 1399.405 668.132, 1399 668.359, 1399 668.941 C 1399 671.361, 1397.103 669.756, 1396.410 666.750 C 1395.673 663.554, 1395.649 663.542, 1394.930 666 C 1394.424 667.731, 1394.169 666.527, 1394.100 662.083 C 1394.045 658.554, 1393.662 656.004, 1393.250 656.417 C 1392.436 657.231, 1392.348 657.625, 1392.055 661.750 C 1391.881 664.200, 1391.769 664.282, 1391.028 662.500 C 1390.344 660.854, 1390.067 661.258, 1389.465 664.784 C 1388.547 670.158, 1388.025 669.650, 1386.925 662.315 C 1385.278 651.331, 1383.087 638.762, 1382.623 637.632 C 1382.182 636.560, 1381.720 639.461, 1381.731 643.227 C 1381.733 644.177, 1381.373 644.730, 1380.929 644.456 C 1380.486 644.182, 1380.316 642.956, 1380.552 641.731 C 1381.948 634.481, 1380.823 617.795, 1378.766 615.250 C 1378.210 614.563, 1376.950 614, 1375.965 614 C 1374.649 614, 1373.970 612.877, 1373.397 609.750 C 1372.582 605.301, 1372.407 604.483, 1372.007 603.250 C 1371.873 602.837, 1371.816 602.163, 1371.882 601.750 C 1372.062 600.604, 1370.624 600.928, 1369.489 602.288 M 1334.056 785.030 C 1325.547 788.090, 1325.866 789.133, 1334.497 786.470 C 1338.766 785.153, 1342.500 783.833, 1342.796 783.538 C 1343.969 782.365, 1339.206 783.178, 1334.056 785.030 M 1307.500 793.893 C 1302.487 796.775, 1297.833 801, 1299.670 801 C 1300.428 801, 1310.744 793.530, 1312.917 791.407 C 1313.950 790.397, 1312.118 791.239, 1307.500 793.893 M 1277.319 795.617 C 1277.659 797.753, 1278.613 805.613, 1279.439 813.085 C 1280.266 820.556, 1281.353 827.756, 1281.855 829.085 C 1283.538 833.538, 1284.334 822.820, 1283.145 811.714 C 1281.883 799.924, 1280.047 792.849, 1278.079 792.193 C 1277.001 791.834, 1276.836 792.578, 1277.319 795.617 M 1315.460 794.348 C 1304.980 800.266, 1297.662 805.902, 1295.784 809.500 C 1294.956 811.088, 1295.335 810.961, 1297.620 808.884 C 1299.204 807.445, 1304.206 803.700, 1308.737 800.560 C 1317.506 794.483, 1321.097 791.165, 1315.460 794.348 M 1345.999 795.390 C 1336.541 798.759, 1331.953 801.246, 1318 810.567 C 1305.047 819.221, 1285.459 836.769, 1287.745 837.672 C 1288.429 837.942, 1292.029 835.133, 1295.745 831.430 C 1312.834 814.398, 1316.001 812.352, 1351 795.733 C 1357.863 792.474, 1354.779 792.263, 1345.999 795.390 M 1313.500 801.291 C 1303.322 806.796, 1295.522 812.748, 1292.559 817.269 C 1290.327 820.676, 1290.870 820.722, 1294.594 817.439 C 1296.193 816.030, 1302.225 811.452, 1308 807.264 C 1322.837 796.507, 1323.324 795.977, 1313.500 801.291 M 1307.945 810.727 C 1298.209 817.329, 1287.632 827.395, 1286.721 830.926 C 1286.240 832.793, 1287.748 831.755, 1293.264 826.426 C 1297.206 822.617, 1300.672 819.249, 1300.966 818.942 C 1301.260 818.635, 1304.650 815.763, 1308.500 812.561 C 1320.235 802.799, 1320.133 802.462, 1307.945 810.727 M 1702.589 840.064 C 1693.269 842.380, 1685.591 850.229, 1681.336 861.794 C 1678.839 868.578, 1678.507 870.816, 1678.556 880.500 C 1678.615 892.161, 1679.017 893.676, 1689.453 921.500 C 1710.648 978.013, 1722.429 1030.858, 1728.689 1097.500 C 1730.888 1120.911, 1731.248 1189.417, 1729.257 1205.500 C 1728.576 1211, 1727.327 1221.800, 1726.481 1229.500 C 1724.757 1245.211, 1724.695 1245.660, 1721.895 1263 C 1719.291 1279.124, 1719.529 1277.806, 1717.031 1290 C 1706.794 1339.974, 1682.391 1411.853, 1670.180 1428 C 1661.785 1439.101, 1647.833 1445.982, 1633.645 1446.018 C 1607.474 1446.084, 1572.899 1458.166, 1549.855 1475.299 C 1530.629 1489.593, 1504.991 1518.539, 1489.005 1544 C 1488.487 1544.825, 1486.420 1547.975, 1484.411 1551 C 1469.177 1573.941, 1451.439 1610.805, 1444.063 1634.856 C 1433.197 1670.286, 1435.167 1696.809, 1449.541 1708.587 C 1475.322 1729.713, 1530.533 1720.652, 1590.619 1685.434 C 1616.101 1670.498, 1649.207 1641.348, 1665.501 1619.500 C 1668.782 1615.100, 1672.016 1610.927, 1672.686 1610.226 C 1679.192 1603.427, 1694.607 1574.798, 1699.903 1559.680 C 1706.238 1541.596, 1707.364 1535.658, 1707.424 1520 C 1707.486 1503.832, 1706.736 1500.238, 1699.970 1484.292 C 1695.598 1473.988, 1693 1464.025, 1693 1457.566 C 1693 1449.377, 1697.587 1434.601, 1704.115 1421.766 C 1723.260 1384.119, 1735.165 1356.452, 1746.183 1324 C 1754.050 1300.829, 1755.713 1295.245, 1765.091 1260.500 C 1769.179 1245.357, 1774.919 1215.643, 1777.552 1196 C 1778.326 1190.225, 1779.398 1182.575, 1779.933 1179 C 1783.717 1153.740, 1784.477 1139.281, 1784.477 1092.500 C 1784.478 1043.242, 1783.826 1031.988, 1778.886 996 C 1775.071 968.201, 1767.456 927.679, 1763.947 916.500 C 1763.430 914.850, 1761.399 907.425, 1759.435 900 C 1751.566 870.252, 1746.613 860.576, 1733.792 849.906 C 1723.325 841.195, 1712.184 837.680, 1702.589 840.064 M 1090.388 928.913 C 1065.321 937.940, 1050.562 963.416, 1041.388 1013.500 C 1040.985 1015.700, 1040.595 1017.725, 1040.522 1018 C 1040.449 1018.275, 1040.039 1022.325, 1039.610 1027 C 1039.181 1031.675, 1038.649 1037.075, 1038.428 1039 C 1037.882 1043.757, 1037.906 1091.508, 1038.457 1096.500 C 1041.031 1119.825, 1041.256 1121.436, 1043.421 1132 C 1044.713 1138.304, 1047.328 1148.689, 1048.080 1150.500 C 1048.537 1151.600, 1050.083 1155.990, 1051.517 1160.255 C 1056.316 1174.532, 1065.671 1189.410, 1073.974 1195.974 C 1083.277 1203.329, 1092.166 1206.317, 1104.599 1206.268 C 1114.288 1206.231, 1118.252 1205.337, 1126.737 1201.282 C 1136.550 1196.591, 1148.429 1182.452, 1154 1168.833 C 1154.825 1166.816, 1155.838 1164.829, 1156.250 1164.416 C 1156.662 1164.004, 1157 1163.022, 1157 1162.234 C 1157 1161.447, 1157.617 1159.384, 1158.370 1157.651 C 1159.124 1155.918, 1160.301 1152.475, 1160.986 1150 C 1161.671 1147.525, 1162.597 1144.375, 1163.042 1143 C 1163.780 1140.722, 1165.462 1132.712, 1167.976 1119.500 C 1171.473 1101.125, 1172.700 1045.686, 1169.955 1030.066 C 1169.430 1027.078, 1169 1022.922, 1169 1020.831 C 1169 1018.740, 1168.559 1015.110, 1168.020 1012.764 C 1167.482 1010.419, 1165.864 1003.100, 1164.426 996.500 C 1162.988 989.900, 1161.435 983.600, 1160.975 982.500 C 1160.516 981.400, 1159.605 978.700, 1158.952 976.500 C 1156.728 969.013, 1148.111 951.005, 1146.750 951.002 C 1146.338 951.001, 1146 950.553, 1146 950.008 C 1146 949.462, 1144.987 947.812, 1143.750 946.340 C 1136.693 937.951, 1128.286 931.844, 1119.538 928.753 C 1112.667 926.325, 1097.342 926.409, 1090.388 928.913 M 570.436 1347.361 C 565.345 1358.113, 555.560 1366.707, 544.121 1370.475 C 537.359 1372.702, 526.994 1372.159, 518.535 1369.133 C 515.254 1367.960, 512.199 1367, 511.745 1367 C 511.292 1367, 512.288 1369.588, 513.958 1372.750 C 515.629 1375.912, 522.356 1389.525, 528.908 1403 C 546.225 1438.613, 563.010 1466.574, 588.244 1501.846 C 598.433 1516.088, 622.516 1545.922, 631.500 1555.432 C 632.600 1556.596, 635.243 1559.563, 637.373 1562.024 C 645.802 1571.766, 672.214 1597.815, 684.846 1608.845 C 750.011 1665.752, 811.869 1703.441, 891 1734.453 C 924.739 1747.676, 978.732 1762.130, 1018 1768.452 C 1056.750 1774.690, 1081.111 1776.505, 1125.500 1776.461 C 1164.891 1776.422, 1182.245 1775.399, 1211.500 1771.395 C 1260.373 1764.705, 1314.049 1750.997, 1358 1733.981 C 1381.772 1724.778, 1382.096 1723.970, 1359 1731.484 C 1338.510 1738.150, 1329.467 1740.867, 1322 1742.599 C 1318.425 1743.428, 1312.800 1744.756, 1309.500 1745.549 C 1287.814 1750.765, 1267.556 1754.205, 1239.500 1757.437 C 1199.121 1762.089, 1132.250 1762.369, 1099.500 1758.022 C 1095.650 1757.511, 1089.800 1756.830, 1086.500 1756.508 C 1068.796 1754.783, 1029.538 1747.374, 1007 1741.505 C 993.288 1737.935, 956.345 1726.498, 947 1722.931 C 943.975 1721.776, 940.600 1720.579, 939.500 1720.271 C 938.400 1719.963, 937.050 1719.385, 936.500 1718.986 C 935.950 1718.587, 933.700 1717.689, 931.500 1716.991 C 929.300 1716.292, 924.342 1714.272, 920.483 1712.502 C 916.623 1710.731, 912.348 1708.930, 910.983 1708.499 C 907.477 1707.392, 865.652 1686.754, 858.880 1682.790 C 855.789 1680.980, 850.839 1678.117, 847.880 1676.427 C 825.304 1663.533, 798.452 1645.224, 774.705 1626.532 C 758.778 1613.996, 758.512 1613.771, 742.500 1599.248 C 722.734 1581.322, 702.668 1560.621, 685.552 1540.500 C 676.532 1529.897, 651.578 1496.721, 644.558 1486 C 641.857 1481.875, 638.899 1477.375, 637.984 1476 C 617.378 1445.006, 589.402 1388.330, 577.517 1353.500 C 575.453 1347.450, 573.612 1342.333, 573.427 1342.128 C 573.241 1341.924, 571.895 1344.278, 570.436 1347.361" stroke="none" fill="#bba940" fill-rule="evenodd"/><path d="M 0 1125 L 0 2250.001 1125.250 2249.750 L 2250.500 2249.500 2250.750 1124.750 L 2251.001 0 1125.500 0 L 0 0 0 1125 M 0.498 1125.500 C 0.498 1744.250, 0.612 1997.525, 0.750 1688.333 C 0.888 1379.141, 0.888 872.891, 0.750 563.333 C 0.612 253.775, 0.498 506.750, 0.498 1125.500 M 1114.500 471.595 C 1081.649 472.827, 1042.493 477.514, 1010.850 484.003 C 980.236 490.282, 938.741 502.171, 912.803 512.095 C 908.236 513.842, 901.800 516.306, 898.500 517.570 C 889.930 520.853, 883.288 523.952, 884.767 523.978 C 885.464 523.990, 889.964 522.683, 894.767 521.074 C 940.850 505.634, 976.772 497.927, 1027.500 492.597 C 1098.435 485.144, 1182.290 491.209, 1249 508.617 C 1316.029 526.109, 1370.645 549.745, 1432 587.813 C 1450.368 599.210, 1492.507 630.319, 1500 638.013 C 1500.275 638.296, 1503.875 641.395, 1508 644.901 C 1518.593 653.905, 1543.058 677.849, 1552.514 688.469 C 1556.906 693.401, 1563.200 700.402, 1566.500 704.026 C 1571.783 709.827, 1588.214 730.514, 1598.464 744.271 C 1608.653 757.946, 1628.340 788.344, 1635.202 801 C 1637.737 805.675, 1641.031 811.750, 1642.522 814.500 C 1648.055 824.706, 1658.858 846.738, 1661.890 854 C 1666.478 864.987, 1666.508 865.009, 1668.519 858.866 C 1672.949 845.339, 1680.527 835.985, 1691.500 830.499 C 1696.754 827.873, 1698.759 827.458, 1707.631 827.162 C 1716.637 826.862, 1718.465 827.109, 1724.083 829.378 C 1727.559 830.782, 1730.586 831.747, 1730.810 831.524 C 1731.033 831.300, 1729.664 828.503, 1727.766 825.309 C 1725.869 822.114, 1723.298 817.475, 1722.054 815 C 1715.350 801.668, 1688.017 759.015, 1677.196 745 C 1674.861 741.975, 1671.948 738.167, 1670.725 736.537 C 1668.910 734.120, 1656.258 718.165, 1649.285 709.500 C 1636.068 693.077, 1601.435 657.275, 1584 642.012 C 1578.775 637.438, 1572.925 632.301, 1571 630.598 C 1569.075 628.894, 1565.925 626.294, 1564 624.820 C 1562.075 623.346, 1558.925 620.741, 1557 619.030 C 1550.275 613.055, 1520.985 591.379, 1509.500 583.878 C 1480.094 564.673, 1469.732 558.561, 1443.500 544.950 C 1406.877 525.948, 1371.880 511.701, 1333 499.966 C 1327.225 498.223, 1320.475 496.179, 1318 495.422 C 1312.629 493.781, 1280.356 485.845, 1277.500 485.463 C 1276.400 485.316, 1272.350 484.453, 1268.500 483.545 C 1258.018 481.073, 1224.460 476.047, 1208 474.484 C 1182.798 472.091, 1138.110 470.711, 1114.500 471.595 M 787.363 530.953 C 776.495 533.545, 720.447 571.885, 691.160 596.760 C 679.932 606.297, 654.225 629.515, 652.902 631.313 C 652.573 631.760, 646.473 638.060, 639.346 645.313 C 632.219 652.566, 623.038 662.325, 618.944 667 C 614.850 671.675, 611.243 675.725, 610.928 676 C 605.575 680.679, 567.982 730.291, 560.778 742.183 C 554.763 752.113, 551.557 762.602, 552.459 769.400 C 553.080 774.085, 555.649 780, 557.062 780 C 558.628 780, 565.429 787.735, 567.103 791.419 C 569.545 796.796, 569.523 805.563, 567.049 812.600 C 565.977 815.652, 562.360 822.953, 559.012 828.825 C 549.356 845.758, 535.824 873.117, 528.506 890.500 C 524.801 899.300, 521.187 907.850, 520.474 909.500 C 512.172 928.723, 498.822 970.498, 493.469 994 C 492.530 998.125, 490.876 1005.100, 489.795 1009.500 C 485.211 1028.148, 480.732 1054.832, 478.046 1079.500 C 477.447 1085, 476.772 1091.075, 476.546 1093 C 472.249 1129.629, 473.615 1196.417, 479.604 1242.500 C 483.693 1273.965, 494.703 1324.489, 499.596 1334.243 C 505.760 1346.529, 514.137 1354.182, 524.932 1357.387 C 531.674 1359.389, 535.242 1359.414, 541.672 1357.505 C 548.968 1355.338, 555.192 1349.414, 559.650 1340.394 C 563.153 1333.306, 563.349 1332.389, 563.422 1322.709 C 563.496 1313.007, 563.240 1311.705, 558.276 1296.500 C 546.089 1259.173, 535.747 1215.938, 532.444 1188.500 C 529.698 1165.699, 529.059 1159.463, 528.498 1150 C 528.188 1144.775, 527.689 1138.025, 527.390 1135 C 527.090 1131.975, 526.712 1119.600, 526.549 1107.500 C 525.880 1057.817, 532.395 1003.336, 545.084 952.500 C 550.970 928.919, 560.680 897.443, 566.523 883 C 573.862 864.860, 584.356 840.238, 586.874 835.249 C 594.868 819.413, 606.368 813.292, 619.465 817.901 C 622.746 819.055, 627.270 820, 629.519 820 C 636.176 820, 644.613 814.938, 651.231 806.973 C 652.792 805.094, 654.778 802.267, 663.505 789.500 C 670.265 779.612, 686.133 758.379, 689.671 754.489 C 690.677 753.384, 694.963 748.209, 699.195 742.989 C 706.877 733.515, 737.794 701.592, 752.018 688.447 C 770.847 671.046, 796.064 651.331, 820 635.295 C 839.403 622.297, 845.411 616.608, 841.978 614.486 C 840.520 613.585, 831.759 616.680, 825.078 620.456 C 813.143 627.202, 774.561 653.977, 767.389 660.491 C 766.778 661.046, 764.544 662.850, 762.424 664.500 C 752.425 672.283, 737.572 685.236, 728.500 694.085 C 723 699.449, 716.025 706.244, 713 709.185 C 702.158 719.724, 689.572 733.567, 677.338 748.408 C 653.762 777.007, 654.909 776.071, 648.345 772.069 C 644.934 769.989, 643.341 765.653, 644.567 761.788 C 645.631 758.435, 664.877 733.223, 676.846 719.500 C 716.117 674.478, 753.677 641.246, 803.002 607.882 C 817.655 597.971, 828 589.356, 828 587.065 C 828 585.611, 823.306 585.800, 818.707 587.441 C 813.730 589.216, 792.209 602.207, 779.800 610.926 C 776.335 613.361, 771.475 616.711, 769 618.372 C 766.525 620.033, 761.051 624.116, 756.835 627.446 C 752.619 630.776, 746.567 635.525, 743.387 638 C 711.559 662.770, 665.429 709.493, 640.301 742.410 C 630.094 755.782, 623.376 758.051, 619.301 749.504 C 617.832 746.425, 617.785 745.484, 618.936 742.299 C 619.665 740.285, 620.648 738.156, 621.121 737.568 C 621.593 736.981, 626.508 730.650, 632.043 723.500 C 655.883 692.700, 671.722 675.267, 701.090 647.500 C 724.686 625.190, 757.111 599.547, 785.500 580.743 C 801.972 569.832, 811 562.271, 811 559.386 C 811 555.044, 796.171 561.320, 776.387 574.034 C 769.363 578.547, 763.045 582.749, 762.347 583.370 C 761.648 583.992, 758.095 586.525, 754.452 589 C 745.205 595.280, 711.278 621.395, 709 623.985 C 708.725 624.297, 700.850 631.362, 691.500 639.684 C 676.254 653.254, 652.809 676.795, 643.878 687.500 C 642.043 689.700, 637.354 695.100, 633.459 699.500 C 629.563 703.900, 624.154 710.425, 621.438 714 C 618.722 717.575, 616.260 720.725, 615.967 721 C 615.674 721.275, 613.761 723.811, 611.716 726.636 C 607.279 732.764, 604.144 735, 599.990 735 C 593.307 735, 589.568 726.408, 593.848 720.885 C 594.864 719.573, 597.877 715.350, 600.542 711.500 C 603.208 707.650, 607.587 701.800, 610.274 698.500 C 612.961 695.200, 615.686 691.810, 616.329 690.966 C 618.345 688.324, 627.319 677.579, 628.947 675.859 C 629.801 674.956, 632.292 672.031, 634.482 669.359 C 649.245 651.346, 698.017 604.809, 717 590.622 C 720.025 588.361, 722.725 586.242, 723 585.912 C 724.344 584.302, 753.498 563.259, 769 552.712 C 795.889 534.416, 801.697 527.534, 787.363 530.953 M 1369.489 602.288 C 1368.933 602.955, 1365.935 606.875, 1362.828 611 C 1357.161 618.521, 1350.123 624.556, 1338 632.289 C 1334.425 634.569, 1328.463 639.391, 1324.750 643.005 C 1321.037 646.619, 1318.009 649.334, 1318.020 649.038 C 1318.065 647.858, 1328.950 633.703, 1333.542 628.853 C 1340.844 621.140, 1337.092 623.406, 1328.322 632.006 L 1320.678 639.500 1324.874 633.500 C 1327.182 630.200, 1331.978 624.350, 1335.532 620.500 C 1339.086 616.650, 1341.995 613.132, 1341.997 612.683 C 1342.002 611.428, 1333.222 618.754, 1326.250 625.822 C 1322.813 629.306, 1320 631.827, 1320 631.423 C 1320 630.372, 1324.695 624.313, 1329.970 618.556 C 1333.954 614.207, 1334.108 613.884, 1331.250 615.874 C 1329.440 617.134, 1328 617.626, 1328 616.984 C 1328 615.109, 1320.392 621.695, 1316.674 626.790 C 1313.859 630.645, 1303.408 651.837, 1298.135 664.379 C 1296.083 669.263, 1295.938 666.707, 1297.885 659.934 C 1300.481 650.899, 1305.005 641.332, 1310.716 632.802 C 1317.063 623.322, 1317.847 621.704, 1314.014 626 C 1304.767 636.362, 1293.894 656.515, 1291.421 667.875 C 1289.280 677.710, 1287.997 679.055, 1288.012 671.450 C 1288.037 659.048, 1293.511 646.533, 1305.926 630.500 C 1308.481 627.200, 1311.640 622.925, 1312.946 621 C 1315.219 617.647, 1315.118 617.690, 1310.540 622 C 1306.951 625.379, 1306.071 625.877, 1307.008 624 C 1307.695 622.625, 1308.935 620.600, 1309.763 619.500 C 1310.592 618.400, 1309.184 619.681, 1306.635 622.347 C 1302.011 627.182, 1301.076 627.594, 1303.035 623.934 C 1303.605 622.870, 1303.670 622, 1303.181 622 C 1299.962 622, 1290.418 635.707, 1284.730 648.500 C 1280.467 658.087, 1278.412 664.852, 1277.468 672.408 C 1277.082 675.498, 1276.415 678.244, 1275.985 678.509 C 1274.899 679.180, 1272.996 667.568, 1273.020 660.418 C 1273.030 657.163, 1273.690 650.900, 1274.485 646.500 C 1275.280 642.100, 1275.913 637.375, 1275.891 636 C 1275.857 633.865, 1275.596 634.080, 1274.099 637.471 C 1272.525 641.038, 1272.239 641.250, 1271.292 639.557 C 1270.393 637.951, 1270.070 638.446, 1269.118 642.885 C 1268.503 645.752, 1268 650.926, 1268 654.383 C 1268 657.839, 1267.686 660.981, 1267.302 661.365 C 1265.716 662.951, 1264.274 657.370, 1264.648 651.088 C 1264.948 646.034, 1264.804 645.039, 1264.027 646.817 C 1263.471 648.091, 1262.959 653.941, 1262.891 659.817 C 1262.767 670.399, 1263.728 678.005, 1266.627 689.387 C 1269.086 699.043, 1266.778 697.963, 1261.742 687.101 C 1257.014 676.902, 1254.045 667.943, 1251.991 657.671 C 1250.201 648.718, 1249.856 651.509, 1251.498 661.662 C 1253.352 673.123, 1257.386 685.440, 1263.996 699.817 C 1266.858 706.042, 1269.009 711.324, 1268.777 711.557 C 1266.511 713.822, 1250.531 685.822, 1246.019 671.683 C 1245.349 669.584, 1244.646 668.021, 1244.457 668.210 C 1243.816 668.850, 1246.057 677.462, 1248.645 684.307 C 1250.061 688.051, 1250.999 691.335, 1250.730 691.603 C 1249.722 692.611, 1239.759 676.211, 1235.175 666 C 1232.765 660.631, 1235.269 669.348, 1238.142 676.330 C 1241.075 683.459, 1245.003 690.368, 1253.304 702.999 C 1259.682 712.703, 1265.500 723.834, 1264.643 724.691 C 1263.668 725.666, 1257.738 719.703, 1250.432 710.402 C 1243.872 702.050, 1233.314 683.604, 1232.316 678.750 C 1231.706 675.785, 1229 674.911, 1229 677.679 C 1229 680.657, 1233.114 693.265, 1236.936 702 C 1238.982 706.675, 1244.108 715.755, 1248.328 722.178 C 1255.759 733.490, 1257.807 737.745, 1254.500 735 C 1253.298 734.002, 1252.675 734.025, 1251.363 735.114 C 1249.943 736.292, 1249.512 736.143, 1248.113 733.986 C 1246.331 731.239, 1231.255 711.088, 1229.794 709.500 C 1227.837 707.373, 1231.125 714.233, 1236.576 723.650 C 1251.566 749.546, 1266.520 780.873, 1270.604 794.936 C 1272.525 801.551, 1273.229 806.840, 1273.698 818.181 L 1274.305 832.861 1270.504 833.181 C 1266.289 833.535, 1265.847 834.093, 1263.533 842 C 1262.647 845.025, 1261.543 848.400, 1261.078 849.500 C 1260.614 850.600, 1258.992 854.650, 1257.475 858.500 C 1249.652 878.352, 1237.631 897.037, 1223.438 911.401 C 1217.236 917.678, 1218.021 917.616, 1207.798 912.648 C 1193.533 905.717, 1187.272 903, 1185.562 903 C 1184.703 903, 1184 902.601, 1184 902.113 C 1184 901.626, 1182.763 900.984, 1181.250 900.687 C 1179.737 900.390, 1174.225 898.940, 1169 897.464 C 1155.071 893.531, 1152.780 893.044, 1138.500 890.993 C 1115.873 887.741, 1070.632 888.772, 1055 892.895 C 1053.075 893.402, 1049.025 894.358, 1046 895.019 C 1038.658 896.622, 1028.085 899.765, 1022.500 902.004 C 1021.400 902.445, 1017.350 904.071, 1013.500 905.617 C 1007.432 908.054, 998.176 912.583, 991.500 916.384 C 975.739 925.356, 954.405 943.601, 942.993 957.867 C 941.072 960.270, 939.050 962.753, 938.500 963.386 C 930.807 972.237, 918.172 996.320, 913.518 1011 C 909.377 1024.061, 909.106 1025.096, 908.004 1032.024 C 903.937 1057.600, 905.200 1094.276, 910.828 1114 C 911.377 1115.925, 912.521 1120.033, 913.369 1123.130 C 915.416 1130.600, 920.989 1143.005, 927.461 1154.500 C 930.100 1159.188, 936.712 1168.889, 938.025 1170 C 938.350 1170.275, 939.286 1171.482, 940.105 1172.683 C 944.002 1178.395, 960.620 1194.770, 968.323 1200.487 C 969.795 1201.580, 971 1203.080, 971 1203.819 C 971 1205.135, 966.220 1211.516, 960.755 1217.496 C 959.245 1219.148, 958.007 1220.805, 958.005 1221.179 C 958.002 1221.552, 957.428 1222.452, 956.729 1223.179 C 956.031 1223.905, 953.683 1226.975, 951.512 1230 C 949.342 1233.025, 947.273 1235.725, 946.915 1236 C 943.487 1238.633, 920 1281.427, 920 1285.039 C 920 1285.583, 919.589 1286.809, 919.087 1287.764 C 917.536 1290.711, 913.870 1303.187, 912.700 1309.500 C 911.310 1316.992, 911.357 1348.614, 912.768 1356 C 918.640 1386.732, 934.115 1407.895, 960.534 1421.321 C 975.378 1428.865, 997.887 1434.346, 1018.396 1435.412 C 1024.389 1435.724, 1067.364 1436.029, 1113.896 1436.091 C 1204.767 1436.211, 1207.561 1436.352, 1218.033 1441.341 C 1223.216 1443.810, 1232 1450.863, 1232 1452.556 C 1232 1452.988, 1232.633 1454.053, 1233.407 1454.921 C 1236.008 1457.839, 1239 1469.088, 1238.992 1475.915 C 1238.985 1482.548, 1236.897 1491.111, 1233.487 1498.500 C 1231.148 1503.567, 1219.664 1521.204, 1217.575 1522.938 C 1214.250 1525.697, 1215.735 1528.537, 1224.976 1537.088 C 1235.019 1546.381, 1236.258 1547.257, 1238.164 1546.409 C 1239.897 1545.638, 1249.775 1533.943, 1257.883 1523.064 C 1284.806 1486.940, 1297.472 1454.381, 1298.546 1418.535 C 1299.082 1400.662, 1295.254 1381.696, 1288.762 1370.050 C 1285.022 1363.341, 1276.838 1353.040, 1272.672 1349.798 C 1270.377 1348.012, 1268.275 1346.262, 1268 1345.909 C 1267.327 1345.043, 1257.126 1338.737, 1254 1337.254 C 1246.663 1333.773, 1239.540 1331, 1237.935 1331 C 1236.935 1331, 1235.871 1330.600, 1235.568 1330.110 C 1235.266 1329.621, 1233.552 1328.983, 1231.759 1328.693 C 1229.967 1328.402, 1225.125 1327.429, 1221 1326.529 C 1204.955 1323.029, 1196.373 1322.710, 1100 1322.035 C 1041.092 1321.623, 1001.931 1320.968, 999.472 1320.355 C 988.316 1317.571, 977.700 1309.924, 974.462 1302.338 C 967.201 1285.329, 968.782 1272.176, 980.788 1249.706 C 985.663 1240.582, 997.339 1222.526, 999.048 1221.470 C 999.530 1221.172, 1002.145 1222.053, 1004.858 1223.428 C 1029.863 1236.099, 1071.209 1244.873, 1103.500 1244.361 C 1141.499 1243.759, 1166.127 1239.337, 1194.500 1228.023 C 1232.350 1212.930, 1270.002 1177.938, 1286.523 1142.500 C 1293.874 1126.734, 1299.279 1109.531, 1300.663 1097.500 C 1300.916 1095.300, 1301.507 1091.250, 1301.976 1088.500 C 1303.258 1080.980, 1302.401 1047.759, 1300.672 1037.964 C 1297.366 1019.232, 1292.159 1003.880, 1283.724 988 C 1279.238 979.555, 1268.860 963.329, 1267.095 962 C 1266.730 961.725, 1265.403 960.150, 1264.147 958.500 C 1262.891 956.850, 1258.519 952.049, 1254.432 947.830 C 1250.344 943.612, 1247 939.742, 1247 939.231 C 1247 938.720, 1250.495 934.747, 1254.766 930.401 C 1272.571 912.287, 1287.986 885.566, 1297.031 857.138 C 1299.308 849.982, 1301.015 843.316, 1300.824 842.325 C 1300.633 841.334, 1299.582 840.379, 1298.489 840.203 C 1294.333 839.534, 1293.863 839.125, 1294.937 837.118 C 1295.500 836.066, 1299.682 832.123, 1304.230 828.356 C 1308.779 824.589, 1313.358 820.731, 1314.407 819.783 C 1318.713 815.890, 1336.160 806.368, 1351.740 799.408 C 1369.723 791.373, 1375.034 788.336, 1385 780.385 C 1398.603 769.533, 1406.544 759.830, 1414.066 744.868 C 1418.193 736.661, 1418.232 735.494, 1414.259 739.226 C 1412.072 741.281, 1411.944 741.301, 1412.600 739.476 C 1412.991 738.389, 1413.621 737.050, 1414 736.500 C 1415.326 734.577, 1415.992 731.887, 1414.989 732.507 C 1414.445 732.843, 1414 733.576, 1414 734.135 C 1414 736.199, 1404.884 746.914, 1400.266 750.277 C 1394.075 754.786, 1384.056 760.389, 1383.384 759.718 C 1383.096 759.429, 1385.029 757.706, 1387.680 755.888 C 1393.621 751.815, 1401.783 744.284, 1403.229 741.542 C 1403.822 740.419, 1402.100 741.624, 1399.403 744.219 C 1396.706 746.815, 1392.925 750.113, 1391 751.548 C 1387.545 754.124, 1378.666 759, 1377.430 759 C 1377.080 759, 1381.732 754.163, 1387.767 748.250 C 1399.974 736.293, 1406.031 727.980, 1410.162 717.516 C 1413.103 710.065, 1413.627 707.494, 1412 708.500 C 1411.447 708.842, 1410.983 708.086, 1410.961 706.809 C 1410.928 704.894, 1410.664 705.097, 1409.411 708 C 1407.491 712.447, 1398.738 725.970, 1397.769 725.987 C 1397.367 725.994, 1398.604 723.150, 1400.519 719.667 C 1405.302 710.964, 1404.879 710.383, 1399.342 718.050 C 1392.449 727.595, 1385.009 735.981, 1380.600 739.175 C 1374.085 743.894, 1374.321 742.364, 1381.206 735.231 C 1387.324 728.895, 1392.800 721.233, 1399.551 709.565 C 1401.122 706.851, 1401.931 704.924, 1401.350 705.283 C 1400.770 705.642, 1401.279 702.913, 1402.483 699.218 C 1403.687 695.523, 1404.949 690.925, 1405.287 689 C 1405.845 685.823, 1405.689 685.961, 1403.595 690.500 L 1401.288 695.500 1401.394 689.586 C 1401.465 685.648, 1401.080 683.530, 1400.244 683.250 C 1399.553 683.019, 1399.285 682.348, 1399.648 681.761 C 1400.690 680.074, 1400.899 669.056, 1399.900 668.438 C 1399.405 668.132, 1399 668.359, 1399 668.941 C 1399 671.361, 1397.103 669.756, 1396.410 666.750 C 1395.673 663.554, 1395.649 663.542, 1394.930 666 C 1394.424 667.731, 1394.169 666.527, 1394.100 662.083 C 1394.045 658.554, 1393.662 656.004, 1393.250 656.417 C 1392.436 657.231, 1392.348 657.625, 1392.055 661.750 C 1391.881 664.200, 1391.769 664.282, 1391.028 662.500 C 1390.344 660.854, 1390.067 661.258, 1389.465 664.784 C 1388.547 670.158, 1388.025 669.650, 1386.925 662.315 C 1385.278 651.331, 1383.087 638.762, 1382.623 637.632 C 1382.182 636.560, 1381.720 639.461, 1381.731 643.227 C 1381.733 644.177, 1381.373 644.730, 1380.929 644.456 C 1380.486 644.182, 1380.316 642.956, 1380.552 641.731 C 1381.948 634.481, 1380.823 617.795, 1378.766 615.250 C 1378.210 614.563, 1376.950 614, 1375.965 614 C 1374.649 614, 1373.970 612.877, 1373.397 609.750 C 1372.582 605.301, 1372.407 604.483, 1372.007 603.250 C 1371.873 602.837, 1371.816 602.163, 1371.882 601.750 C 1372.062 600.604, 1370.624 600.928, 1369.489 602.288 M 1334.056 785.030 C 1325.547 788.090, 1325.866 789.133, 1334.497 786.470 C 1338.766 785.153, 1342.500 783.833, 1342.796 783.538 C 1343.969 782.365, 1339.206 783.178, 1334.056 785.030 M 1307.500 793.893 C 1302.487 796.775, 1297.833 801, 1299.670 801 C 1300.428 801, 1310.744 793.530, 1312.917 791.407 C 1313.950 790.397, 1312.118 791.239, 1307.500 793.893 M 1277.319 795.617 C 1277.659 797.753, 1278.613 805.613, 1279.439 813.085 C 1280.266 820.556, 1281.353 827.756, 1281.855 829.085 C 1283.538 833.538, 1284.334 822.820, 1283.145 811.714 C 1281.883 799.924, 1280.047 792.849, 1278.079 792.193 C 1277.001 791.834, 1276.836 792.578, 1277.319 795.617 M 1315.460 794.348 C 1304.980 800.266, 1297.662 805.902, 1295.784 809.500 C 1294.956 811.088, 1295.335 810.961, 1297.620 808.884 C 1299.204 807.445, 1304.206 803.700, 1308.737 800.560 C 1317.506 794.483, 1321.097 791.165, 1315.460 794.348 M 1345.999 795.390 C 1336.541 798.759, 1331.953 801.246, 1318 810.567 C 1305.047 819.221, 1285.459 836.769, 1287.745 837.672 C 1288.429 837.942, 1292.029 835.133, 1295.745 831.430 C 1312.834 814.398, 1316.001 812.352, 1351 795.733 C 1357.863 792.474, 1354.779 792.263, 1345.999 795.390 M 1313.500 801.291 C 1303.322 806.796, 1295.522 812.748, 1292.559 817.269 C 1290.327 820.676, 1290.870 820.722, 1294.594 817.439 C 1296.193 816.030, 1302.225 811.452, 1308 807.264 C 1322.837 796.507, 1323.324 795.977, 1313.500 801.291 M 1307.945 810.727 C 1298.209 817.329, 1287.632 827.395, 1286.721 830.926 C 1286.240 832.793, 1287.748 831.755, 1293.264 826.426 C 1297.206 822.617, 1300.672 819.249, 1300.966 818.942 C 1301.260 818.635, 1304.650 815.763, 1308.500 812.561 C 1320.235 802.799, 1320.133 802.462, 1307.945 810.727 M 1702.589 840.064 C 1693.269 842.380, 1685.591 850.229, 1681.336 861.794 C 1678.839 868.578, 1678.507 870.816, 1678.556 880.500 C 1678.615 892.161, 1679.017 893.676, 1689.453 921.500 C 1710.648 978.013, 1722.429 1030.858, 1728.689 1097.500 C 1730.888 1120.911, 1731.248 1189.417, 1729.257 1205.500 C 1728.576 1211, 1727.327 1221.800, 1726.481 1229.500 C 1724.757 1245.211, 1724.695 1245.660, 1721.895 1263 C 1719.291 1279.124, 1719.529 1277.806, 1717.031 1290 C 1706.794 1339.974, 1682.391 1411.853, 1670.180 1428 C 1661.785 1439.101, 1647.833 1445.982, 1633.645 1446.018 C 1607.474 1446.084, 1572.899 1458.166, 1549.855 1475.299 C 1530.629 1489.593, 1504.991 1518.539, 1489.005 1544 C 1488.487 1544.825, 1486.420 1547.975, 1484.411 1551 C 1469.177 1573.941, 1451.439 1610.805, 1444.063 1634.856 C 1433.197 1670.286, 1435.167 1696.809, 1449.541 1708.587 C 1475.322 1729.713, 1530.533 1720.652, 1590.619 1685.434 C 1616.101 1670.498, 1649.207 1641.348, 1665.501 1619.500 C 1668.782 1615.100, 1672.016 1610.927, 1672.686 1610.226 C 1679.192 1603.427, 1694.607 1574.798, 1699.903 1559.680 C 1706.238 1541.596, 1707.364 1535.658, 1707.424 1520 C 1707.486 1503.832, 1706.736 1500.238, 1699.970 1484.292 C 1695.598 1473.988, 1693 1464.025, 1693 1457.566 C 1693 1449.377, 1697.587 1434.601, 1704.115 1421.766 C 1723.260 1384.119, 1735.165 1356.452, 1746.183 1324 C 1754.050 1300.829, 1755.713 1295.245, 1765.091 1260.500 C 1769.179 1245.357, 1774.919 1215.643, 1777.552 1196 C 1778.326 1190.225, 1779.398 1182.575, 1779.933 1179 C 1783.717 1153.740, 1784.477 1139.281, 1784.477 1092.500 C 1784.478 1043.242, 1783.826 1031.988, 1778.886 996 C 1775.071 968.201, 1767.456 927.679, 1763.947 916.500 C 1763.430 914.850, 1761.399 907.425, 1759.435 900 C 1751.566 870.252, 1746.613 860.576, 1733.792 849.906 C 1723.325 841.195, 1712.184 837.680, 1702.589 840.064 M 1090.388 928.913 C 1065.321 937.940, 1050.562 963.416, 1041.388 1013.500 C 1040.985 1015.700, 1040.595 1017.725, 1040.522 1018 C 1040.449 1018.275, 1040.039 1022.325, 1039.610 1027 C 1039.181 1031.675, 1038.649 1037.075, 1038.428 1039 C 1037.882 1043.757, 1037.906 1091.508, 1038.457 1096.500 C 1041.031 1119.825, 1041.256 1121.436, 1043.421 1132 C 1044.713 1138.304, 1047.328 1148.689, 1048.080 1150.500 C 1048.537 1151.600, 1050.083 1155.990, 1051.517 1160.255 C 1056.316 1174.532, 1065.671 1189.410, 1073.974 1195.974 C 1083.277 1203.329, 1092.166 1206.317, 1104.599 1206.268 C 1114.288 1206.231, 1118.252 1205.337, 1126.737 1201.282 C 1136.550 1196.591, 1148.429 1182.452, 1154 1168.833 C 1154.825 1166.816, 1155.838 1164.829, 1156.250 1164.416 C 1156.662 1164.004, 1157 1163.022, 1157 1162.234 C 1157 1161.447, 1157.617 1159.384, 1158.370 1157.651 C 1159.124 1155.918, 1160.301 1152.475, 1160.986 1150 C 1161.671 1147.525, 1162.597 1144.375, 1163.042 1143 C 1163.780 1140.722, 1165.462 1132.712, 1167.976 1119.500 C 1171.473 1101.125, 1172.700 1045.686, 1169.955 1030.066 C 1169.430 1027.078, 1169 1022.922, 1169 1020.831 C 1169 1018.740, 1168.559 1015.110, 1168.020 1012.764 C 1167.482 1010.419, 1165.864 1003.100, 1164.426 996.500 C 1162.988 989.900, 1161.435 983.600, 1160.975 982.500 C 1160.516 981.400, 1159.605 978.700, 1158.952 976.500 C 1156.728 969.013, 1148.111 951.005, 1146.750 951.002 C 1146.338 951.001, 1146 950.553, 1146 950.008 C 1146 949.462, 1144.987 947.812, 1143.750 946.340 C 1136.693 937.951, 1128.286 931.844, 1119.538 928.753 C 1112.667 926.325, 1097.342 926.409, 1090.388 928.913 M 570.436 1347.361 C 565.345 1358.113, 555.560 1366.707, 544.121 1370.475 C 537.359 1372.702, 526.994 1372.159, 518.535 1369.133 C 515.254 1367.960, 512.199 1367, 511.745 1367 C 511.292 1367, 512.288 1369.588, 513.958 1372.750 C 515.629 1375.912, 522.356 1389.525, 528.908 1403 C 546.225 1438.613, 563.010 1466.574, 588.244 1501.846 C 598.433 1516.088, 622.516 1545.922, 631.500 1555.432 C 632.600 1556.596, 635.243 1559.563, 637.373 1562.024 C 645.802 1571.766, 672.214 1597.815, 684.846 1608.845 C 750.011 1665.752, 811.869 1703.441, 891 1734.453 C 924.739 1747.676, 978.732 1762.130, 1018 1768.452 C 1056.750 1774.690, 1081.111 1776.505, 1125.500 1776.461 C 1164.891 1776.422, 1182.245 1775.399, 1211.500 1771.395 C 1260.373 1764.705, 1314.049 1750.997, 1358 1733.981 C 1381.772 1724.778, 1382.096 1723.970, 1359 1731.484 C 1338.510 1738.150, 1329.467 1740.867, 1322 1742.599 C 1318.425 1743.428, 1312.800 1744.756, 1309.500 1745.549 C 1287.814 1750.765, 1267.556 1754.205, 1239.500 1757.437 C 1199.121 1762.089, 1132.250 1762.369, 1099.500 1758.022 C 1095.650 1757.511, 1089.800 1756.830, 1086.500 1756.508 C 1068.796 1754.783, 1029.538 1747.374, 1007 1741.505 C 993.288 1737.935, 956.345 1726.498, 947 1722.931 C 943.975 1721.776, 940.600 1720.579, 939.500 1720.271 C 938.400 1719.963, 937.050 1719.385, 936.500 1718.986 C 935.950 1718.587, 933.700 1717.689, 931.500 1716.991 C 929.300 1716.292, 924.342 1714.272, 920.483 1712.502 C 916.623 1710.731, 912.348 1708.930, 910.983 1708.499 C 907.477 1707.392, 865.652 1686.754, 858.880 1682.790 C 855.789 1680.980, 850.839 1678.117, 847.880 1676.427 C 825.304 1663.533, 798.452 1645.224, 774.705 1626.532 C 758.778 1613.996, 758.512 1613.771, 742.500 1599.248 C 722.734 1581.322, 702.668 1560.621, 685.552 1540.500 C 676.532 1529.897, 651.578 1496.721, 644.558 1486 C 641.857 1481.875, 638.899 1477.375, 637.984 1476 C 617.378 1445.006, 589.402 1388.330, 577.517 1353.500 C 575.453 1347.450, 573.612 1342.333, 573.427 1342.128 C 573.241 1341.924, 571.895 1344.278, 570.436 1347.361" stroke="none" fill="#fbfbfb" fill-rule="evenodd"/></svg>